<svg fill="#000000" width="36px" height="36px" viewBox="0 0 1.08 1.08" xmlns="http://www.w3.org/2000/svg">
  <path fill-rule="evenodd" d="M0.172 0.495h0.736c0.045 0 0.082 0.04 0.082 0.09v0.09c0 0.05 -0.037 0.09 -0.082 0.09H0.172C0.127 0.765 0.09 0.725 0.09 0.675v-0.09c0 -0.05 0.037 -0.09 0.082 -0.09ZM0.18 0.585v0.09h0.72v-0.09H0.18ZM0.172 0.135h0.736C0.953 0.135 0.99 0.175 0.99 0.225v0.09c0 0.05 -0.037 0.09 -0.082 0.09H0.172C0.127 0.405 0.09 0.365 0.09 0.315V0.225c0 -0.05 0.037 -0.09 0.082 -0.09ZM0.18 0.225v0.09h0.72V0.225H0.18ZM0.09 0.855h0.54v0.09H0.09v-0.09Z"/>
</svg>
